# xmcd
#
# Track frame offsets:
#	150
#	15662
#	31782
#	49430
#	64792
#	76262
#	88012
#	103862
#	118182
#	133475
#	145922
#	160375
#	175292
#	190812
#	201392
#	214602
#	233365
#	245600
#	258690
#	271987
#	288297
#	303740
#	314107
#	329355
#	339090
#
# Disc length: 4675 seconds
#
# Revision: 0
# Processed by: cddbd v1.4PL0 Copyright (c) Steve Scherf et al.
# Submitted via: dBpowerAMP V4.0
#
DISCID=7e124119
DTITLE=Hoyt Axton - Gotta Keep Rollin': The Jeremiah Years 1979-81
DYEAR=1991
DGENRE=Country
TTITLE0=Della and the Dealer
TTITLE1=When the Morning Comes (with Linda Ronstadt)
TTITLE2=In a Young Girl's Mind
TTITLE3=Never Been to Spain
TTITLE4=No No Song
TTITLE5=A Rusty Old Halo
TTITLE6=Evangelina
TTITLE7=Boney Fingers
TTITLE8=Where Did the Money Go
TTITLE9=Pistol Packin' Mama
TTITLE10=Everybody's Going on the Road
TTITLE11=Boozers Are Losers
TTITLE12=Wild Bull Rider
TTITLE13=Heartbreak Hotel
TTITLE14=Gotta Keep Rollin'
TTITLE15=Viva Pancho Villa
TTITLE16=So Hard to Give It All Up
TTITLE17=(When You Dance) You Do Not Tango
TTITLE18=Betty La Rue
TTITLE19=Midnight in Memphis
TTITLE20=Battle of New Orleans
TTITLE21=Hotel Ritz
TTITLE22=The House Song
TTITLE23=The Devil
TTITLE24=Joy to the World
EXTD=
EXTT0=
EXTT1=
EXTT2=
EXTT3=
EXTT4=
EXTT5=
EXTT6=
EXTT7=
EXTT8=
EXTT9=
EXTT10=
EXTT11=
EXTT12=
EXTT13=
EXTT14=
EXTT15=
EXTT16=
EXTT17=
EXTT18=
EXTT19=
EXTT20=
EXTT21=
EXTT22=
EXTT23=
EXTT24=
PLAYORDER=
